<?xml version="1.0" encoding="UTF-8"?> <svg xmlns="http://www.w3.org/2000/svg" id="Layer_1" data-name="Layer 1" viewBox="0 0 80 80"><defs><style>.cls-1{fill:#ea9421;}.cls-2{fill:#fff;}</style></defs><circle class="cls-1" cx="40.29" cy="39.95" r="38.21"></circle><path class="cls-2" d="M57.65,23.27H23.13a5.85,5.85,0,0,0-5.85,5.85V49.2a5.85,5.85,0,0,0,5.85,5.85h.34v6.74l6.74-6.74H57.65A5.85,5.85,0,0,0,63.5,49.2V29.12A5.85,5.85,0,0,0,57.65,23.27ZM28.39,43.49a3.85,3.85,0,1,1,3.85-3.85A3.85,3.85,0,0,1,28.39,43.49Zm12,0a3.85,3.85,0,1,1,3.85-3.85A3.85,3.85,0,0,1,40.39,43.49Zm12-.21A3.64,3.64,0,1,1,56,39.64,3.64,3.64,0,0,1,52.39,43.28Z"></path></svg> 